<svg
        width="375"
        height="130"
        viewBox="0 0 375 95"
        fill="none"
        xmlns="http://www.w3.org/2000/svg"
      >
        <path
          d="M131.134 70.224C135.526 70.224 139.198 67.992 141.79 65.256C142.438 67.56 144.238 70.152 145.462 70.152C148.126 70.152 150.718 69.432 151.87 68.352C151.87 66.84 151.726 65.976 151.438 65.04H147.91C147.622 63.744 147.478 62.52 147.478 61.224V19.608C147.478 18.384 146.974 17.376 145.102 17.376C143.374 17.376 139.27 18.24 137.038 19.104C136.318 19.392 136.03 19.68 136.03 20.256C136.03 20.76 136.318 21.696 136.534 22.488H140.494C141.214 22.488 141.502 22.92 141.502 24.288V35.736C139.342 34.512 136.894 33.576 133.51 33.576C123.286 33.576 117.094 40.344 117.094 52.8C117.094 64.536 122.998 70.224 131.134 70.224ZM132.358 65.256C126.526 65.256 123.142 61.152 123.142 52.656C123.142 43.08 127.102 38.4 133.366 38.4C137.326 38.4 139.63 39.696 141.502 41.136V60.072C138.838 63.168 135.958 65.256 132.358 65.256ZM154.459 69.36H169.003C169.291 68.568 169.507 67.272 169.507 66.048C169.507 65.616 169.219 65.4 168.571 65.4C165.835 65.4 164.251 65.112 164.899 63.6L169.435 52.368H188.227L192.907 63.6C193.555 65.112 191.683 65.4 188.299 65.4C187.939 66.768 188.155 68.424 188.947 69.36H204.427C204.715 68.568 204.931 67.272 204.931 66.048C204.931 65.616 204.643 65.4 203.995 65.4C200.827 65.4 200.107 65.112 199.459 63.672L182.467 22.056C182.323 21.624 181.891 21.336 181.315 21.336H176.491L159.067 63.672C158.419 65.256 157.771 65.4 153.811 65.4C153.451 66.768 153.667 68.424 154.459 69.36ZM171.163 47.904L178.867 28.752L186.715 47.904H171.163ZM208.918 69.36H224.83C225.118 68.568 225.334 67.272 225.334 66.048C225.334 65.616 225.046 65.4 224.398 65.4C220.87 65.4 219.862 65.04 219.862 63.672V26.736C219.862 25.44 221.014 25.08 224.686 25.08C225.046 23.784 224.83 22.272 224.11 21.264H209.134C208.846 22.056 208.63 23.28 208.63 24.432C208.63 24.864 208.918 25.08 209.566 25.08C212.806 25.08 213.67 25.368 213.67 26.736V63.672C213.67 65.112 212.59 65.4 208.27 65.4C207.91 66.768 208.126 68.424 208.918 69.36ZM231.629 69.36H258.197L258.269 58.776C258.269 58.128 257.765 57.768 256.613 57.768H253.733C253.733 63.744 252.653 65.4 248.621 65.4H236.453L257.333 38.328C257.405 37.176 257.045 35.376 256.397 34.368H231.341V42.936C231.341 43.728 231.989 44.16 232.997 44.16H235.733C235.949 39.336 236.885 38.328 240.989 38.328H251.141L230.333 65.328C230.189 66.696 230.693 68.568 231.629 69.36Z"
          fill="url(#paint0_linear_108_307)"
        />
        <path
          d="M144.742 93.168C145.066 93.222 145.606 93.204 145.804 93.15C145.948 93.114 145.984 93.006 146.002 92.844C146.074 92.232 146.164 90.954 146.164 90.198V76.626C146.164 76.482 146.092 76.41 145.894 76.338C145.372 76.14 144.256 75.924 143.698 75.924C143.626 75.924 143.554 75.942 143.5 76.032C143.428 76.14 143.32 76.446 143.266 76.662C143.77 76.752 144.22 76.95 144.454 77.13C144.652 77.292 144.742 77.4 144.742 77.67V93.168ZM141.592 92.628C141.916 92.682 142.42 92.664 142.618 92.61C142.762 92.574 142.798 92.466 142.816 92.304C142.888 91.692 142.978 90.414 142.978 89.658V77.616C142.978 77.472 142.906 77.382 142.708 77.31C142.204 77.148 141.322 77.004 140.782 77.004C140.71 77.004 140.62 77.022 140.566 77.112C140.494 77.22 140.386 77.49 140.332 77.706C140.746 77.814 141.142 77.958 141.358 78.084C141.556 78.192 141.592 78.336 141.592 78.624V82.26H140.098C139.396 82.26 138.244 82.134 138.064 82.134C137.812 82.134 137.722 82.17 137.722 82.386C137.722 82.602 137.83 83.088 137.938 83.43H141.592V92.628ZM134.014 87.498C135.58 87.498 138.622 87.03 140.512 86.526C140.656 86.49 140.692 86.4 140.692 86.274C140.692 86.094 140.566 85.644 140.494 85.482C138.676 85.896 136.12 86.238 134.446 86.238V79.938H139.198C139.306 79.632 139.396 78.984 139.396 78.786C139.396 78.606 139.306 78.57 139.09 78.57C138.892 78.57 137.596 78.696 137.092 78.696H134.284C133.816 78.696 132.88 78.57 132.448 78.57C132.214 78.57 132.142 79.164 132.124 79.326C132.61 79.434 133.006 79.668 133.006 80.154V86.4C133.006 87.12 133.258 87.498 134.014 87.498ZM191.815 93.168C192.139 93.222 192.679 93.204 192.877 93.15C193.021 93.114 193.057 93.006 193.075 92.844C193.147 92.232 193.273 90.954 193.273 90.198V76.644C193.273 76.5 193.201 76.428 193.003 76.356C192.481 76.158 191.257 75.924 190.699 75.924C190.627 75.924 190.555 75.942 190.501 76.032C190.429 76.14 190.321 76.464 190.267 76.68C190.771 76.788 191.293 77.004 191.509 77.166C191.725 77.328 191.815 77.4 191.815 77.67V93.168ZM184.849 87.066C187.387 87.066 189.169 85.32 189.169 82.728C189.169 80.136 187.387 78.39 184.849 78.39C182.311 78.39 180.529 80.136 180.529 82.728C180.529 85.32 182.311 87.066 184.849 87.066ZM184.849 85.842C183.211 85.842 182.005 84.654 182.005 82.728C182.005 80.82 183.211 79.614 184.849 79.614C186.487 79.614 187.693 80.82 187.693 82.728C187.693 84.654 186.487 85.842 184.849 85.842ZM229.297 85.518C230.431 85.032 232.879 83.772 235.129 82.35C236.911 83.322 238.675 84.294 240.367 85.284C240.637 85.05 241.051 84.636 241.213 84.366C241.285 84.24 241.267 84.132 241.123 84.06C239.395 83.268 237.757 82.494 236.155 81.702C237.757 80.64 239.125 79.542 239.647 78.696C239.827 78.39 239.683 77.904 239.305 77.904C238.945 77.904 238.189 77.958 237.739 77.958H232.321C231.619 77.958 230.827 77.976 230.143 77.85C230.053 77.976 229.873 78.372 229.873 78.462C229.873 78.534 229.909 78.588 229.963 78.624C230.251 78.858 230.791 79.164 231.151 79.344C231.619 79.182 232.051 79.128 232.537 79.128H237.433C235.183 81.108 230.557 83.736 228.433 84.654C228.541 84.924 228.757 85.356 228.865 85.464C228.973 85.572 229.117 85.59 229.297 85.518ZM228.505 89.514C229.243 89.298 229.873 89.136 230.521 89.136H240.007C240.925 89.136 241.951 89.19 242.797 89.226C242.905 88.884 243.013 88.236 243.013 88.02C243.013 87.804 242.923 87.768 242.671 87.768C242.437 87.768 240.961 87.93 239.575 87.93H230.287C228.865 87.93 228.163 87.912 227.083 87.732C226.957 87.894 226.759 88.182 226.759 88.29C226.759 88.38 226.831 88.47 226.867 88.506C227.299 88.956 227.911 89.298 228.505 89.514Z"
          fill="#C4C4C4"
        />
        <defs>
          <linearGradient
            id="paint0_linear_108_307"
            x1="187.5"
            y1="0"
            x2="187.5"
            y2="95"
            gradientUnits="userSpaceOnUse"
          >
            <stop stopColor="#F09134" />
            <stop offset="0.552083" stopColor="#EEB053" />
            <stop offset="1" stopColor="#F3A95F" />
          </linearGradient>
        </defs>
      </svg>